<?xml version="1.0" standalone="no"?>
<!DOCTYPE svg PUBLIC "-//W3C//DTD SVG 20010904//EN"
 "http://www.w3.org/TR/2001/REC-SVG-20010904/DTD/svg10.dtd">
<svg version="1.0" xmlns="http://www.w3.org/2000/svg"
 width="158.000000pt" height="158.000000pt" viewBox="0 0 158.000000 158.000000"
 preserveAspectRatio="xMidYMid meet">
<metadata>
Created by potrace 1.14, written by Peter Selinger 2001-2017
</metadata>
<g transform="translate(0.000000,158.000000) scale(0.100000,-0.100000)"
fill="#000000" stroke="none">
<path d="M532 1561 c-11 -9 -27 -31 -36 -48 -19 -38 -43 -43 -55 -11 l-8 21
-16 -24 c-22 -31 -21 -62 3 -84 19 -17 19 -18 -30 -73 -27 -30 -47 -58 -45
-62 2 -4 33 -5 68 -4 67 3 107 -13 107 -42 0 -31 -73 -86 -203 -154 -67 -35
-125 -95 -155 -160 -37 -79 -36 -195 3 -300 72 -194 198 -339 529 -609 13 -10
4 13 -24 64 -124 225 -144 286 -144 440 0 209 107 408 272 504 196 114 402 65
534 -126 33 -49 30 -53 -15 -19 -18 13 -57 37 -87 52 -49 25 -66 29 -145 29
-78 0 -97 -4 -140 -27 -43 -22 -135 -99 -135 -111 0 -2 17 -1 38 2 137 24 295
-41 361 -149 28 -47 26 -56 -6 -25 -53 49 -111 69 -198 69 -96 0 -167 -28
-229 -90 -70 -71 -120 -213 -106 -304 4 -30 6 -27 18 35 35 189 143 299 297
299 92 0 155 -32 205 -106 45 -65 59 -97 80 -183 l17 -70 12 36 c21 63 24 82
27 170 4 99 -7 144 -51 214 -52 82 -122 132 -228 159 -52 14 -52 14 -24 25
101 40 253 -17 372 -138 27 -28 51 -49 52 -47 2 2 -8 29 -22 62 -99 230 -242
342 -438 342 -136 0 -248 -51 -357 -160 -80 -81 -152 -214 -174 -321 -16 -77
-18 -197 -6 -254 l9 -38 -41 45 c-23 25 -60 74 -83 110 -76 116 -108 203 -107
290 0 103 43 166 156 232 147 86 206 145 206 208 0 48 -30 86 -80 101 -44 13
-42 22 11 53 27 16 31 16 26 4 -3 -9 1 -24 8 -35 11 -14 18 -16 32 -7 27 16
23 47 -7 54 l-25 6 27 7 c63 16 142 -32 199 -122 16 -25 29 -43 29 -39 0 17
-44 105 -81 159 -30 45 -39 67 -35 85 4 13 13 24 22 24 20 0 8 19 -20 30 -21
8 -53 -6 -85 -37 -19 -20 -39 0 -33 35 4 33 -14 38 -46 13z"/>
<path d="M365 956 c-36 -16 -84 -63 -96 -93 -12 -31 -3 -121 16 -167 18 -42
31 -44 15 -2 -33 88 10 206 95 257 34 22 15 25 -30 5z"/>
</g>
</svg>
